<?xml version="1.0" encoding="utf-8"?>
<svg width="30px" height="31px" viewBox="0 0 30 31" version="1.1" xmlns:xlink="http://www.w3.org/1999/xlink" xmlns="http://www.w3.org/2000/svg">
  <g id="Навигация-в-право" transform="matrix(-1 8.742278E-08 -8.742278E-08 -1 28.59961 29.600006)">
    <path d="M13.9024 0L13.9044 0Q14.2457 0 14.5866 0.0167461Q14.9275 0.0334922 15.2671 0.0669441Q15.6068 0.100396 15.9444 0.150473Q16.2819 0.20055 16.6167 0.267132Q16.9514 0.333713 17.2825 0.416639Q17.6135 0.499565 17.9401 0.598635Q18.2667 0.697705 18.588 0.81268Q18.9094 0.927656 19.2247 1.05826Q19.54 1.18887 19.8485 1.33478Q20.157 1.4807 20.458 1.64158Q20.759 1.80246 21.0517 1.97792Q21.3445 2.15338 21.6282 2.34298Q21.912 2.53259 22.1861 2.7359Q22.4602 2.9392 22.7241 3.15571Q22.9879 3.37222 23.2408 3.60141Q23.4936 3.83061 23.735 4.07193Q23.9763 4.31326 24.2055 4.56613Q24.4347 4.81901 24.6512 5.08283Q24.8677 5.34665 25.071 5.62077Q25.2743 5.89489 25.4639 6.17866Q25.6535 6.46243 25.829 6.75516Q26.0044 7.04789 26.1653 7.34888Q26.3262 7.64987 26.4721 7.95838Q26.618 8.2669 26.7486 8.58221Q26.8792 8.89752 26.9942 9.21885Q27.1092 9.54019 27.2083 9.86678Q27.3073 10.1934 27.3903 10.5244Q27.4732 10.8555 27.5398 11.1902Q27.6063 11.5249 27.6564 11.8625Q27.7065 12.2001 27.74 12.5398Q27.7734 12.8794 27.7901 13.2203Q27.8069 13.5612 27.8069 13.9024L27.8069 14.8976Q27.8069 15.2388 27.7901 15.5797Q27.7734 15.9206 27.74 16.2602Q27.7065 16.5999 27.6564 16.9375Q27.6063 17.2751 27.5398 17.6098Q27.4732 17.9445 27.3903 18.2756Q27.3073 18.6066 27.2083 18.9332Q27.1092 19.2598 26.9942 19.5811Q26.8792 19.9025 26.7486 20.2178Q26.618 20.5331 26.4721 20.8416Q26.3262 21.1501 26.1653 21.4511Q26.0044 21.7521 25.829 22.0448Q25.6535 22.3376 25.4639 22.6213Q25.2743 22.9051 25.071 23.1792Q24.8677 23.4534 24.6512 23.7172Q24.4347 23.981 24.2055 24.2339Q23.9763 24.4867 23.735 24.7281Q23.4936 24.9694 23.2408 25.1986Q22.9879 25.4278 22.7241 25.6443Q22.4602 25.8608 22.1861 26.0641Q21.912 26.2674 21.6282 26.457Q21.3445 26.6466 21.0517 26.8221Q20.759 26.9975 20.458 27.1584Q20.157 27.3193 19.8485 27.4652Q19.54 27.6111 19.2247 27.7417Q18.9094 27.8723 18.588 27.9873Q18.2667 28.1023 17.9401 28.2014Q17.6135 28.3004 17.2825 28.3834Q16.9514 28.4663 16.6167 28.5329Q16.2819 28.5994 15.9444 28.6495Q15.6068 28.6996 15.2671 28.7331Q14.9275 28.7665 14.5866 28.7832Q14.2457 28.8 13.9044 28.8L13.9024 28.8Q13.5612 28.8 13.2203 28.7833Q12.8794 28.7665 12.5398 28.7331Q12.2001 28.6996 11.8625 28.6495Q11.5249 28.5994 11.1902 28.5329Q10.8555 28.4663 10.5244 28.3834Q10.1934 28.3004 9.86678 28.2014Q9.54019 28.1023 9.21885 27.9873Q8.89752 27.8723 8.58221 27.7417Q8.2669 27.6111 7.95838 27.4652Q7.64987 27.3193 7.34888 27.1584Q7.04789 26.9975 6.75516 26.8221Q6.46243 26.6466 6.17866 26.457Q5.89489 26.2674 5.62077 26.0641Q5.34665 25.8608 5.08283 25.6443Q4.81901 25.4278 4.56613 25.1986Q4.31326 24.9694 4.07193 24.7281Q3.83061 24.4867 3.60141 24.2339Q3.37222 23.981 3.15571 23.7172Q2.9392 23.4533 2.7359 23.1792Q2.53259 22.9051 2.34298 22.6213Q2.15338 22.3376 1.97792 22.0448Q1.80246 21.7521 1.64158 21.4511Q1.4807 21.1501 1.33478 20.8416Q1.18887 20.5331 1.05826 20.2178Q0.927656 19.9025 0.81268 19.5811Q0.697705 19.2598 0.598635 18.9332Q0.499565 18.6066 0.416639 18.2756Q0.333713 17.9445 0.267132 17.6098Q0.20055 17.2751 0.150473 16.9375Q0.100396 16.5999 0.0669441 16.2602Q0.0334922 15.9206 0.0167461 15.5797Q0 15.2388 0 14.8976L0 13.9024Q0 13.5612 0.0167461 13.2203Q0.0334922 12.8794 0.0669441 12.5398Q0.100396 12.2001 0.150473 11.8625Q0.20055 11.5249 0.267132 11.1902Q0.333713 10.8555 0.416639 10.5244Q0.499565 10.1934 0.598635 9.86678Q0.697705 9.54019 0.81268 9.21885Q0.927656 8.89752 1.05826 8.58221Q1.18887 8.2669 1.33478 7.95838Q1.4807 7.64987 1.64158 7.34888Q1.80246 7.04789 1.97792 6.75516Q2.15338 6.46243 2.34298 6.17866Q2.53259 5.89489 2.7359 5.62077Q2.9392 5.34665 3.15571 5.08283Q3.37222 4.81901 3.60141 4.56613Q3.83061 4.31326 4.07193 4.07193Q4.31326 3.83061 4.56613 3.60141Q4.81901 3.37222 5.08283 3.15571Q5.34665 2.9392 5.62077 2.7359Q5.89489 2.53259 6.17866 2.34298Q6.46243 2.15338 6.75516 1.97792Q7.04789 1.80246 7.34888 1.64158Q7.64987 1.4807 7.95838 1.33478Q8.2669 1.18887 8.58221 1.05826Q8.89752 0.927656 9.21885 0.81268Q9.54019 0.697705 9.86678 0.598635Q10.1934 0.499565 10.5244 0.416639Q10.8555 0.333713 11.1902 0.267132Q11.5249 0.20055 11.8625 0.150473Q12.2001 0.100396 12.5398 0.0669441Q12.8794 0.0334922 13.2203 0.0167461Q13.5612 0 13.9024 0L13.9024 0Z" id="Rectangle-Copy" fill="#FFFFFF" fill-rule="evenodd" stroke="#FFFFFF" stroke-width="1.1999999" />
    <path d="M-6.8755e-13 1.92949e-16L7.2 6.95172L14.4 0" transform="matrix(1.1924881E-08 1 -1 1.1924881E-08 16.220688 7.199999)" id="arrow" fill="none" fill-rule="evenodd" stroke="#19A24B" stroke-width="1.1999999" stroke-linecap="round" />
  </g>
</svg>