<?xml version="1.0" encoding="utf-8"?>
<svg width="17px" height="18px" viewBox="0 0 17 18" version="1.1" xmlns:xlink="http://www.w3.org/1999/xlink" xmlns="http://www.w3.org/2000/svg">
  <g id="101-viber">
    <path d="M16.2588 10.3833C16.7934 5.88314 16.002 3.04208 14.5743 1.75706L14.5751 1.75632C12.2709 -0.438138 4.48911 -0.762938 1.73241 1.85488C0.49444 3.13541 0.0583868 5.01477 0.0106001 7.34138C-0.0371866 9.66874 -0.0939332 14.0285 3.96868 15.2112L3.97241 15.2112L3.96868 17.0174C3.96868 17.0174 3.94105 17.7492 4.40847 17.8963C4.94308 18.0695 5.185 17.7298 6.84783 15.7436C9.62841 15.9848 11.7639 15.4323 12.0065 15.3516C12.568 15.1635 15.7451 14.7431 16.2588 10.3833ZM7.12185 14.4728C7.12185 14.4728 5.36196 16.6672 4.81465 17.237C4.63545 17.4221 4.43908 17.405 4.44207 17.0376C4.44207 16.7964 4.45551 14.039 4.45551 14.039C1.01113 13.0519 1.21423 9.33946 1.25156 7.39738C1.28889 5.45456 1.64431 3.86341 2.69263 2.79194C5.11108 0.524315 11.9334 1.0313 13.6716 2.66501C15.7966 4.54885 15.0403 9.87109 15.0447 10.0525C14.6079 13.6918 12.0334 13.9225 11.56 14.08C11.3577 14.1472 9.47983 14.6303 7.12185 14.4728Z" transform="translate(0.0035865486 0.0018045856)" id="Shape" fill="#8E24AA" stroke="none" />
    <path d="M0.2156 0C-0.0718667 0 -0.0718667 0.448 0.2156 0.451733C2.44589 0.468907 4.28269 2.02347 4.30285 4.87499C4.30285 5.17589 4.74339 5.17216 4.73965 4.87125L4.73891 4.87125C4.71501 1.79872 2.70947 0.0171733 0.2156 0L0.2156 0Z" transform="translate(7.8834934 3.2200935)" id="Path" fill="#8E24AA" stroke="none" />
    <path d="M2.76541 3.22705C2.75869 3.52422 3.19848 3.53841 3.20221 3.2375C3.2388 1.54332 2.19421 0.147797 0.231223 0.000703684C-0.0562438 -0.020203 -0.0861105 0.43153 0.20061 0.452437C1.90301 0.58161 2.79976 1.74342 2.76541 3.22705L2.76541 3.22705Z" transform="translate(8.267337 4.3953896)" id="Path" fill="#8E24AA" stroke="none" />
    <path d="M6.93782 5.81196C6.56897 5.59841 6.19339 5.73132 6.03809 5.94113L5.71329 6.3615C5.54827 6.57505 5.2399 6.54668 5.2399 6.54668C2.98945 5.95158 2.38763 3.5966 2.38763 3.5966C2.38763 3.5966 2.36001 3.27777 2.56609 3.10678L2.97227 2.77078C3.17537 2.6095 3.30379 2.22124 3.09697 1.83969C2.54443 0.841396 2.17334 0.497182 1.98443 0.232863C1.78582 -0.0157775 1.48715 -0.0717775 1.17654 0.0962225L1.16982 0.0962225C0.523952 0.474036 -0.183141 1.18113 0.0430988 1.90913C0.429125 2.6767 1.13846 5.12353 3.39937 6.97228C4.46187 7.84662 6.14337 8.74262 6.85718 8.94945L6.8639 8.9599C7.56726 9.19436 8.25121 8.45964 8.61633 7.79436L8.61633 7.78913C8.77835 7.46732 8.72459 7.16268 8.4879 6.96332C8.06827 6.55414 7.4351 6.10241 6.93782 5.81196Z" transform="translate(3.624528 3.7376308)" id="Path" fill="#8E24AA" stroke="none" />
    <path d="M0.205191 0.452211C0.922738 0.494024 1.27068 0.868851 1.30802 1.63866C1.32146 1.93957 1.75826 1.91866 1.74482 1.61776C1.69703 0.612744 1.17287 0.0527441 0.229084 0.00047742C-0.0583824 -0.0166959 -0.0852624 0.435037 0.205191 0.452211L0.205191 0.452211Z" transform="translate(8.600996 5.6104426)" id="Path" fill="#8E24AA" stroke="none" />
  </g>
</svg>