<?xml version="1.0" encoding="utf-8"?>
<svg width="15px" height="15px" viewBox="0 0 15 15" version="1.1" xmlns:xlink="http://www.w3.org/1999/xlink" xmlns="http://www.w3.org/2000/svg">
  <g id="637473">
    <path d="M0.32001 0C0.14337 0 0 0.14337 0 0.32001L0 9.28002C0 9.45666 0.14337 9.60003 0.32001 9.60003C0.49665 9.60003 0.64002 9.45663 0.64002 9.27999L0.64002 0.32001C0.64002 0.14337 0.49665 0 0.32001 0Z" transform="translate(7.03998 0)" id="Path" fill="#19A24B" stroke="none" />
    <path d="M2.88 0L0.32001 0C0.14337 0 0 0.14337 0 0.32001C0 0.49665 0.14337 0.64002 0.32001 0.64002L2.88 0.64002C3.05664 0.64002 3.20001 0.49665 3.20001 0.32001C3.20001 0.14337 3.05664 0 2.88 0Z" transform="translate(11.5199995 6.39999)" id="Path" fill="#19A24B" stroke="none" />
    <path d="M4.16001 0L0.32001 0C0.14337 0 0 0.14337 0 0.32001C0 0.49665 0.14337 0.64002 0.32001 0.64002L4.16001 0.64002C4.33665 0.64002 4.48002 0.49665 4.48002 0.32001C4.48002 0.14337 4.33665 0 4.16001 0Z" transform="translate(5.11998 6.39999)" id="Path" fill="#19A24B" stroke="none" />
    <path d="M2.88 0L0.32001 0C0.14337 0 0 0.14337 0 0.32001C0 0.49665 0.14337 0.64002 0.32001 0.64002L2.88 0.64002C3.05664 0.64002 3.20001 0.49665 3.20001 0.32001C3.20001 0.14337 3.05664 0 2.88 0Z" transform="translate(0 6.39999)" id="Path" fill="#19A24B" stroke="none" />
    <path d="M0.32001 0C0.14337 0 0 0.14337 0 0.32001L0 2.88C0 3.05664 0.14337 3.20001 0.32001 3.20001C0.49665 3.20001 0.64002 3.05664 0.64002 2.88L0.64002 0.32001C0.64002 0.14337 0.49665 0 0.32001 0Z" transform="translate(7.03998 11.5199995)" id="Path" fill="#19A24B" stroke="none" />
    <path d="M14.4 0L0.32001 0C0.14337 0 0 0.14337 0 0.32001L0 9.28002C0 9.456 0.14337 9.6 0.32001 9.6L0.96 9.6C1.13664 9.6 1.28001 9.45663 1.28001 9.27999C1.28001 9.10335 1.13664 8.96001 0.96 8.96001L0.63999 8.96001L0.63999 0.63999L14.08 0.63999L14.08 14.08L0.63999 14.08L0.63999 12.16L0.96 12.16C1.13664 12.16 1.28001 12.0166 1.28001 11.84C1.28001 11.6633 1.13664 11.52 0.96 11.52L0.32001 11.52C0.14337 11.52 0 11.6634 0 11.84L0 14.4C0 14.5766 0.14337 14.72 0.32001 14.72L14.4 14.72C14.5766 14.72 14.72 14.5766 14.72 14.4L14.72 0.32001C14.72 0.14337 14.5766 0 14.4 0Z" id="Path" fill="#19A24B" stroke="none" />
    <path d="M1.60002 0L0.32001 0C0.14337 0 0 0.14337 0 0.32001C0 0.49665 0.14337 0.63999 0.32001 0.63999L1.60002 0.63999C1.77666 0.63999 1.92003 0.49662 1.92003 0.31998C1.92003 0.14334 1.77666 0 1.60002 0Z" transform="translate(6.39999 8.96001)" id="Path" fill="#19A24B" stroke="none" />
    <path d="M1.60002 0L0.32001 0C0.14337 0 0 0.14337 0 0.32001C0 0.49665 0.14337 0.64002 0.32001 0.64002L1.60002 0.64002C1.77666 0.64002 1.92003 0.49665 1.92003 0.32001C1.92003 0.14337 1.77666 0 1.60002 0Z" transform="translate(6.39999 11.5199995)" id="Path" fill="#19A24B" stroke="none" />
    <path d="M0.32001 0C0.14337 0 0 0.14337 0 0.32001L0 1.60002C0 1.77663 0.14337 1.92 0.32001 1.92C0.49665 1.92 0.64002 1.77663 0.64002 1.59999L0.64002 0.31998C0.64002 0.14337 0.49665 0 0.32001 0Z" transform="translate(2.55999 5.7599998)" id="Path" fill="#19A24B" stroke="none" />
    <path d="M0.32001 0C0.14337 0 0 0.14337 0 0.32001L0 1.60002C0 1.77666 0.14337 1.92003 0.32001 1.92003C0.49665 1.92003 0.64002 1.77663 0.64002 1.59999L0.64002 0.31998C0.64002 0.14337 0.49665 0 0.32001 0Z" transform="translate(5.11998 5.7599998)" id="Path" fill="#19A24B" stroke="none" />
    <path d="M0.32001 0C0.14337 0 0 0.14337 0 0.32001L0 1.60002C0 1.77666 0.14337 1.92003 0.32001 1.92003C0.49665 1.92003 0.64002 1.77663 0.64002 1.59999L0.64002 0.31998C0.64002 0.14337 0.49665 0 0.32001 0Z" transform="translate(8.95998 5.7599998)" id="Path" fill="#19A24B" stroke="none" />
    <path d="M0.32001 0C0.14337 0 0 0.14337 0 0.32001L0 1.60002C0 1.77666 0.14337 1.92003 0.32001 1.92003C0.49665 1.92003 0.64002 1.77666 0.64002 1.60002L0.64002 0.32001C0.63999 0.14337 0.49665 0 0.32001 0Z" transform="translate(11.5199995 5.7599998)" id="Path" fill="#19A24B" stroke="none" />
  </g>
</svg>