<?xml version="1.0" encoding="utf-8"?>
<svg width="11px" height="13px" viewBox="0 0 11 13" version="1.1" xmlns:xlink="http://www.w3.org/1999/xlink" xmlns="http://www.w3.org/2000/svg">
  <path d="M7.588 2.57386C7.588 1.15235 6.42876 0 4.99877 0C3.56877 0 2.40954 1.15235 2.40954 2.57386C2.40954 3.99536 3.56877 5.14771 4.99877 5.14771C6.42876 5.14771 7.588 3.99536 7.588 2.57386ZM4.99877 12C6.91054 12 8.70951 11.1005 9.84926 9.57474C10.0259 9.31812 10.049 8.9866 9.90967 8.70821L9.71116 8.30497C9.27689 7.42391 8.37648 6.86492 7.38949 6.86361L2.60804 6.86361C1.60698 6.86469 0.696225 7.4393 0.269105 8.33929L0.0878589 8.71679C-0.0480665 8.99288 -0.0250199 9.32017 0.148274 9.57474C1.28802 11.1005 3.08699 12 4.99877 12Z" transform="translate(0.42285156 0.42297363)" id="Combined-Shape" fill="#19A24B" fill-rule="evenodd" stroke="none" />
</svg>