<?xml version="1.0" encoding="utf-8"?>
<svg width="18px" height="18px" viewBox="0 0 18 18" version="1.1" xmlns:xlink="http://www.w3.org/1999/xlink" xmlns="http://www.w3.org/2000/svg">
  <g id="109-whatsapp">
    <path d="M15.3216 2.57525C13.6192 0.9296 11.3792 0 8.9936 0C2.14667 0 -2.15264 7.41813 1.26635 13.319L0 17.92L4.73013 16.6865C6.79093 17.7998 8.47915 17.7012 8.99808 17.7669C16.9374 17.7669 20.8895 8.16181 15.3104 2.60437L15.3216 2.57525Z" id="Path" fill="#ECEFF1" stroke="none" />
    <path d="M7.41963 14.7731L7.41515 14.7723L7.4032 14.7723C5.02731 14.7723 3.50933 13.6471 3.36 13.5822L0.56 14.3102L1.3104 11.5886L1.13195 11.3086C0.392747 10.1318 0 8.77661 0 7.38109C0 0.815652 8.02293 -2.46744 12.6657 2.17309C17.2973 6.76509 14.0455 14.7731 7.41963 14.7731Z" transform="translate(1.5904 1.4676546)" id="Path" fill="#4CAF50" stroke="none" />
    <path d="M8.60278 5.99546C8.37803 5.88346 7.28342 5.3481 7.07958 5.27418C6.62187 5.10468 6.75104 5.2473 5.87222 6.2538C5.74155 6.3994 5.61163 6.4106 5.38987 6.3098C5.16587 6.1978 4.44683 5.9626 3.59563 5.201C2.93259 4.6074 2.48758 3.8794 2.35616 3.6554C2.13739 3.27759 2.5951 3.22383 3.01174 2.43535C3.0864 2.27855 3.04832 2.15535 2.99307 2.0441C2.93707 1.9321 2.49131 0.834497 2.30464 0.396951C2.12544 -0.0391026 1.94102 0.0161507 1.80288 0.0161507C1.3728 -0.0211826 1.05846 -0.0152093 0.781443 0.273004C-0.423677 1.59759 -0.119784 2.96399 0.911363 4.417C2.93782 7.06916 4.0175 7.55748 5.99168 8.23546C6.5248 8.40495 7.01088 8.38106 7.39542 8.3258C7.824 8.25786 8.71478 7.78746 8.9007 7.26106C9.0911 6.73466 9.0911 6.29786 9.0351 6.19706C8.97984 6.09626 8.8335 6.04026 8.6095 5.93946L8.60278 5.99546Z" transform="translate(4.4623976 4.7431026)" id="Path" fill="#FAFAFA" stroke="none" />
  </g>
</svg>